<svg class="marks" width="4490" height="1790" viewBox="0 0 898 358" version="1.1" xmlns="http://www.w3.org/2000/svg" xmlns:xlink="http://www.w3.org/1999/xlink"><g transform="translate(52,5)"><g class="mark-group role-frame root"><g transform="translate(0,0)"><path class="background" d="M0.5,0.5h714v300h-714Z" style="fill: none; stroke: #ddd;"></path><g><g class="mark-group role-axis"><g transform="translate(0.5,0.5)"><path class="background" d="M0,0h0v0h0Z" style="pointer-events: none; fill: none;"></path><g><g class="mark-rule role-axis-grid" style="pointer-events: none;"><line transform="translate(0,300)" x2="714" y2="0" style="fill: none; stroke: #ddd; stroke-width: 1; opacity: 1;"></line><line transform="translate(0,254)" x2="714" y2="0" style="fill: none; stroke: #ddd; stroke-width: 1; opacity: 1;"></line><line transform="translate(0,208)" x2="714" y2="0" style="fill: none; stroke: #ddd; stroke-width: 1; opacity: 1;"></line><line transform="translate(0,162)" x2="714" y2="0" style="fill: none; stroke: #ddd; stroke-width: 1; opacity: 1;"></line><line transform="translate(0,115)" x2="714" y2="0" style="fill: none; stroke: #ddd; stroke-width: 1; opacity: 1;"></line><line transform="translate(0,69)" x2="714" y2="0" style="fill: none; stroke: #ddd; stroke-width: 1; opacity: 1;"></line><line transform="translate(0,23)" x2="714" y2="0" style="fill: none; stroke: #ddd; stroke-width: 1; opacity: 1;"></line></g></g></g></g><g class="mark-rect role-mark marks"><path d="M316.05,184.6153846153846h18.900000000000002v115.38461538461539h-18.900000000000002Z" style="fill: #4c78a8;"></path><path d="M295.05,161.53846153846152h18.900000000000002v115.38461538461539h-18.900000000000002Z" style="fill: #4c78a8;"></path><path d="M400.05,161.53846153846152h18.900000000000002v115.38461538461539h-18.900000000000002Z" style="fill: #4c78a8;"></path><path d="M442.05,207.69230769230768h18.900000000000002v92.30769230769232h-18.900000000000002Z" style="fill: #4c78a8;"></path><path d="M694.05,276.9230769230769h18.900000000000002v23.076923076923094h-18.900000000000002Z" style="fill: #4c78a8;"></path><path d="M190.05,23.076923076923038h18.900000000000002v276.92307692307696h-18.900000000000002Z" style="fill: #4c78a8;"></path><path d="M253.05,0h18.900000000000002v300h-18.900000000000002Z" style="fill: #4c78a8;"></path><path d="M232.05,92.30769230769232h18.900000000000002v161.53846153846152h-18.900000000000002Z" style="fill: #4c78a8;"></path><path d="M463.05,207.69230769230768h18.900000000000002v69.23076923076923h-18.900000000000002Z" style="fill: #4c78a8;"></path><path d="M631.05,253.84615384615384h18.900000000000002v46.15384615384616h-18.900000000000002Z" style="fill: #4c78a8;"></path><path d="M484.05,276.9230769230769h18.900000000000002v23.076923076923094h-18.900000000000002Z" style="fill: #4c78a8;"></path><path d="M337.05,161.53846153846152h18.900000000000002v115.38461538461539h-18.900000000000002Z" style="fill: #4c78a8;"></path><path d="M400.05,276.9230769230769h18.900000000000002v23.076923076923094h-18.900000000000002Z" style="fill: #e45756;"></path><path d="M610.05,253.84615384615384h18.900000000000002v46.15384615384616h-18.900000000000002Z" style="fill: #4c78a8;"></path><path d="M337.05,276.9230769230769h18.900000000000002v23.076923076923094h-18.900000000000002Z" style="fill: #eeca3b;"></path><path d="M127.05000000000001,253.84615384615384h18.900000000000002v46.15384615384616h-18.900000000000002Z" style="fill: #4c78a8;"></path><path d="M169.05,138.46153846153848h18.900000000000002v161.53846153846152h-18.900000000000002Z" style="fill: #4c78a8;"></path><path d="M232.05,253.84615384615384h18.900000000000002v23.076923076923066h-18.900000000000002Z" style="fill: #72b7b2;"></path><path d="M652.05,276.9230769230769h18.900000000000002v23.076923076923094h-18.900000000000002Z" style="fill: #4c78a8;"></path><path d="M526.05,253.84615384615384h18.900000000000002v46.15384615384616h-18.900000000000002Z" style="fill: #4c78a8;"></path><path d="M547.05,276.9230769230769h18.900000000000002v23.076923076923094h-18.900000000000002Z" style="fill: #4c78a8;"></path><path d="M1.0500000000000114,253.84615384615384h18.900000000000002v46.15384615384616h-18.900000000000002Z" style="fill: #4c78a8;"></path><path d="M379.05,207.69230769230768h18.900000000000002v92.30769230769232h-18.900000000000002Z" style="fill: #4c78a8;"></path><path d="M568.05,276.9230769230769h18.900000000000002v23.076923076923094h-18.900000000000002Z" style="fill: #4c78a8;"></path><path d="M673.05,253.84615384615384h18.900000000000002v46.15384615384616h-18.900000000000002Z" style="fill: #4c78a8;"></path><path d="M211.05,115.38461538461539h18.900000000000002v115.38461538461539h-18.900000000000002Z" style="fill: #4c78a8;"></path><path d="M295.05,276.9230769230769h18.900000000000002v23.076923076923094h-18.900000000000002Z" style="fill: #eeca3b;"></path><path d="M589.05,253.84615384615384h18.900000000000002v46.15384615384616h-18.900000000000002Z" style="fill: #4c78a8;"></path><path d="M274.05,276.9230769230769h18.900000000000002v23.076923076923094h-18.900000000000002Z" style="fill: #eeca3b;"></path><path d="M274.05,184.6153846153846h18.900000000000002v92.30769230769229h-18.900000000000002Z" style="fill: #4c78a8;"></path><path d="M148.05,207.69230769230768h18.900000000000002v69.23076923076923h-18.900000000000002Z" style="fill: #4c78a8;"></path><path d="M463.05,276.9230769230769h18.900000000000002v23.076923076923094h-18.900000000000002Z" style="fill: #eeca3b;"></path><path d="M64.05000000000001,276.9230769230769h18.900000000000002v23.076923076923094h-18.900000000000002Z" style="fill: #4c78a8;"></path><path d="M85.05000000000001,253.84615384615384h18.900000000000002v46.15384615384616h-18.900000000000002Z" style="fill: #4c78a8;"></path><path d="M106.05000000000001,253.84615384615384h18.900000000000002v46.15384615384616h-18.900000000000002Z" style="fill: #4c78a8;"></path><path d="M505.05,276.9230769230769h18.900000000000002v23.076923076923094h-18.900000000000002Z" style="fill: #4c78a8;"></path><path d="M421.05,207.69230769230768h18.900000000000002v92.30769230769232h-18.900000000000002Z" style="fill: #4c78a8;"></path><path d="M43.05000000000001,276.9230769230769h18.900000000000002v23.076923076923094h-18.900000000000002Z" style="fill: #4c78a8;"></path><path d="M211.05,276.9230769230769h18.900000000000002v23.076923076923094h-18.900000000000002Z" style="fill: #eeca3b;"></path><path d="M22.05000000000001,276.9230769230769h18.900000000000002v23.076923076923094h-18.900000000000002Z" style="fill: #4c78a8;"></path><path d="M211.05,253.84615384615384h18.900000000000002v23.076923076923066h-18.900000000000002Z" style="fill: #54a24b;"></path><path d="M232.05,276.9230769230769h18.900000000000002v23.076923076923094h-18.900000000000002Z" style="fill: #eeca3b;"></path><path d="M358.05,230.76923076923077h18.900000000000002v69.23076923076923h-18.900000000000002Z" style="fill: #4c78a8;"></path><path d="M148.05,276.9230769230769h18.900000000000002v23.076923076923094h-18.900000000000002Z" style="fill: #72b7b2;"></path><path d="M211.05,230.76923076923077h18.900000000000002v23.076923076923066h-18.900000000000002Z" style="fill: #f58518;"></path></g><g class="mark-group role-legend"><g transform="translate(732,0)"><path class="background" d="M0,0h109v102h-109Z" style="pointer-events: none; fill: none;"></path><g><g class="mark-group role-legend-entry"><g transform="translate(0,16)"><path class="background" d="M0,0h0v0h0Z" style="pointer-events: none; fill: none;"></path><g><g class="mark-symbol role-legend-symbol" style="pointer-events: none;"><path transform="translate(5,5)" d="M-5,-5h10v10h-10Z" style="fill: #4c78a8; stroke-width: 1.5; opacity: 1;"></path><path transform="translate(5,20)" d="M-5,-5h10v10h-10Z" style="fill: #f58518; stroke-width: 1.5; opacity: 1;"></path><path transform="translate(5,35)" d="M-5,-5h10v10h-10Z" style="fill: #e45756; stroke-width: 1.5; opacity: 1;"></path><path transform="translate(5,50)" d="M-5,-5h10v10h-10Z" style="fill: #72b7b2; stroke-width: 1.5; opacity: 1;"></path><path transform="translate(5,65)" d="M-5,-5h10v10h-10Z" style="fill: #54a24b; stroke-width: 1.5; opacity: 1;"></path><path transform="translate(5,80)" d="M-5,-5h10v10h-10Z" style="fill: #eeca3b; stroke-width: 1.5; opacity: 1;"></path></g><g class="mark-text role-legend-label" style="pointer-events: none;"><text text-anchor="start" transform="translate(18,8)" style="font: 10px sans-serif; fill: #000; opacity: 1;">Canton</text><text text-anchor="start" transform="translate(18,23)" style="font: 10px sans-serif; fill: #000; opacity: 1;">China</text><text text-anchor="start" transform="translate(18,38)" style="font: 10px sans-serif; fill: #000; opacity: 1;">Hainan</text><text text-anchor="start" transform="translate(18,53)" style="font: 10px sans-serif; fill: #000; opacity: 1;">Hong Kong</text><text text-anchor="start" transform="translate(18,68)" style="font: 10px sans-serif; fill: #000; opacity: 1;">Macao</text><text text-anchor="start" transform="translate(18,83)" style="font: 10px sans-serif; fill: #000; opacity: 1;">Shanghai</text></g></g></g></g><g class="mark-text role-legend-title" style="pointer-events: none;"><text text-anchor="start" transform="translate(0,9)" style="font: bold 11px sans-serif; fill: #000; opacity: 1;">Birthplace simplified</text></g></g></g></g><g class="mark-group role-axis"><g transform="translate(0.5,300.5)"><path class="background" d="M0,0h0v0h0Z" style="pointer-events: none; fill: none;"></path><g><g class="mark-rule role-axis-tick" style="pointer-events: none;"><line transform="translate(10,0)" x2="0" y2="5" style="fill: none; stroke: #888; stroke-width: 1; opacity: 1;"></line><line transform="translate(31,0)" x2="0" y2="5" style="fill: none; stroke: #888; stroke-width: 1; opacity: 1;"></line><line transform="translate(52,0)" x2="0" y2="5" style="fill: none; stroke: #888; stroke-width: 1; opacity: 1;"></line><line transform="translate(73,0)" x2="0" y2="5" style="fill: none; stroke: #888; stroke-width: 1; opacity: 1;"></line><line transform="translate(94,0)" x2="0" y2="5" style="fill: none; stroke: #888; stroke-width: 1; opacity: 1;"></line><line transform="translate(115,0)" x2="0" y2="5" style="fill: none; stroke: #888; stroke-width: 1; opacity: 1;"></line><line transform="translate(136,0)" x2="0" y2="5" style="fill: none; stroke: #888; stroke-width: 1; opacity: 1;"></line><line transform="translate(157,0)" x2="0" y2="5" style="fill: none; stroke: #888; stroke-width: 1; opacity: 1;"></line><line transform="translate(178,0)" x2="0" y2="5" style="fill: none; stroke: #888; stroke-width: 1; opacity: 1;"></line><line transform="translate(199,0)" x2="0" y2="5" style="fill: none; stroke: #888; stroke-width: 1; opacity: 1;"></line><line transform="translate(220,0)" x2="0" y2="5" style="fill: none; stroke: #888; stroke-width: 1; opacity: 1;"></line><line transform="translate(241,0)" x2="0" y2="5" style="fill: none; stroke: #888; stroke-width: 1; opacity: 1;"></line><line transform="translate(262,0)" x2="0" y2="5" style="fill: none; stroke: #888; stroke-width: 1; opacity: 1;"></line><line transform="translate(283,0)" x2="0" y2="5" style="fill: none; stroke: #888; stroke-width: 1; opacity: 1;"></line><line transform="translate(304,0)" x2="0" y2="5" style="fill: none; stroke: #888; stroke-width: 1; opacity: 1;"></line><line transform="translate(325,0)" x2="0" y2="5" style="fill: none; stroke: #888; stroke-width: 1; opacity: 1;"></line><line transform="translate(346,0)" x2="0" y2="5" style="fill: none; stroke: #888; stroke-width: 1; opacity: 1;"></line><line transform="translate(367,0)" x2="0" y2="5" style="fill: none; stroke: #888; stroke-width: 1; opacity: 1;"></line><line transform="translate(388,0)" x2="0" y2="5" style="fill: none; stroke: #888; stroke-width: 1; opacity: 1;"></line><line transform="translate(409,0)" x2="0" y2="5" style="fill: none; stroke: #888; stroke-width: 1; opacity: 1;"></line><line transform="translate(430,0)" x2="0" y2="5" style="fill: none; stroke: #888; stroke-width: 1; opacity: 1;"></line><line transform="translate(451,0)" x2="0" y2="5" style="fill: none; stroke: #888; stroke-width: 1; opacity: 1;"></line><line transform="translate(472,0)" x2="0" y2="5" style="fill: none; stroke: #888; stroke-width: 1; opacity: 1;"></line><line transform="translate(493,0)" x2="0" y2="5" style="fill: none; stroke: #888; stroke-width: 1; opacity: 1;"></line><line transform="translate(514,0)" x2="0" y2="5" style="fill: none; stroke: #888; stroke-width: 1; opacity: 1;"></line><line transform="translate(535,0)" x2="0" y2="5" style="fill: none; stroke: #888; stroke-width: 1; opacity: 1;"></line><line transform="translate(556,0)" x2="0" y2="5" style="fill: none; stroke: #888; stroke-width: 1; opacity: 1;"></line><line transform="translate(577,0)" x2="0" y2="5" style="fill: none; stroke: #888; stroke-width: 1; opacity: 1;"></line><line transform="translate(598,0)" x2="0" y2="5" style="fill: none; stroke: #888; stroke-width: 1; opacity: 1;"></line><line transform="translate(619,0)" x2="0" y2="5" style="fill: none; stroke: #888; stroke-width: 1; opacity: 1;"></line><line transform="translate(640,0)" x2="0" y2="5" style="fill: none; stroke: #888; stroke-width: 1; opacity: 1;"></line><line transform="translate(661,0)" x2="0" y2="5" style="fill: none; stroke: #888; stroke-width: 1; opacity: 1;"></line><line transform="translate(682,0)" x2="0" y2="5" style="fill: none; stroke: #888; stroke-width: 1; opacity: 1;"></line><line transform="translate(703,0)" x2="0" y2="5" style="fill: none; stroke: #888; stroke-width: 1; opacity: 1;"></line></g><g class="mark-text role-axis-label" style="pointer-events: none;"><text text-anchor="end" transform="translate(9.500000000000012,7) rotate(270) translate(0,3)" style="font: 10px sans-serif; fill: #000; opacity: 1;">null</text><text text-anchor="end" transform="translate(30.500000000000014,7) rotate(270) translate(0,3)" style="font: 10px sans-serif; fill: #000; opacity: 1;">1857</text><text text-anchor="end" transform="translate(51.500000000000014,7) rotate(270) translate(0,3)" style="font: 10px sans-serif; fill: #000; opacity: 1;">1859</text><text text-anchor="end" transform="translate(72.50000000000001,7) rotate(270) translate(0,3)" style="font: 10px sans-serif; fill: #000; opacity: 1;">1862</text><text text-anchor="end" transform="translate(93.50000000000001,7) rotate(270) translate(0,3)" style="font: 10px sans-serif; fill: #000; opacity: 1;">1863</text><text text-anchor="end" transform="translate(114.50000000000001,7) rotate(270) translate(0,3)" style="font: 10px sans-serif; fill: #000; opacity: 1;">1864</text><text text-anchor="end" transform="translate(135.5,7) rotate(270) translate(0,3)" style="font: 10px sans-serif; fill: #000; opacity: 1;">1865</text><text text-anchor="end" transform="translate(156.5,7) rotate(270) translate(0,3)" style="font: 10px sans-serif; fill: #000; opacity: 1;">1866</text><text text-anchor="end" transform="translate(177.5,7) rotate(270) translate(0,3)" style="font: 10px sans-serif; fill: #000; opacity: 1;">1867</text><text text-anchor="end" transform="translate(198.5,7) rotate(270) translate(0,3)" style="font: 10px sans-serif; fill: #000; opacity: 1;">1868</text><text text-anchor="end" transform="translate(219.5,7) rotate(270) translate(0,3)" style="font: 10px sans-serif; fill: #000; opacity: 1;">1869</text><text text-anchor="end" transform="translate(240.5,7) rotate(270) translate(0,3)" style="font: 10px sans-serif; fill: #000; opacity: 1;">1870</text><text text-anchor="end" transform="translate(261.5,7) rotate(270) translate(0,3)" style="font: 10px sans-serif; fill: #000; opacity: 1;">1871</text><text text-anchor="end" transform="translate(282.5,7) rotate(270) translate(0,3)" style="font: 10px sans-serif; fill: #000; opacity: 1;">1872</text><text text-anchor="end" transform="translate(303.5,7) rotate(270) translate(0,3)" style="font: 10px sans-serif; fill: #000; opacity: 1;">1873</text><text text-anchor="end" transform="translate(324.5,7) rotate(270) translate(0,3)" style="font: 10px sans-serif; fill: #000; opacity: 1;">1874</text><text text-anchor="end" transform="translate(345.5,7) rotate(270) translate(0,3)" style="font: 10px sans-serif; fill: #000; opacity: 1;">1875</text><text text-anchor="end" transform="translate(366.5,7) rotate(270) translate(0,3)" style="font: 10px sans-serif; fill: #000; opacity: 1;">1876</text><text text-anchor="end" transform="translate(387.5,7) rotate(270) translate(0,3)" style="font: 10px sans-serif; fill: #000; opacity: 1;">1877</text><text text-anchor="end" transform="translate(408.5,7) rotate(270) translate(0,3)" style="font: 10px sans-serif; fill: #000; opacity: 1;">1878</text><text text-anchor="end" transform="translate(429.5,7) rotate(270) translate(0,3)" style="font: 10px sans-serif; fill: #000; opacity: 1;">1879</text><text text-anchor="end" transform="translate(450.5,7) rotate(270) translate(0,3)" style="font: 10px sans-serif; fill: #000; opacity: 1;">1880</text><text text-anchor="end" transform="translate(471.5,7) rotate(270) translate(0,3)" style="font: 10px sans-serif; fill: #000; opacity: 1;">1881</text><text text-anchor="end" transform="translate(492.5,7) rotate(270) translate(0,3)" style="font: 10px sans-serif; fill: #000; opacity: 1;">1883</text><text text-anchor="end" transform="translate(513.5,7) rotate(270) translate(0,3)" style="font: 10px sans-serif; fill: #000; opacity: 1;">1885</text><text text-anchor="end" transform="translate(534.5,7) rotate(270) translate(0,3)" style="font: 10px sans-serif; fill: #000; opacity: 1;">1886</text><text text-anchor="end" transform="translate(555.5,7) rotate(270) translate(0,3)" style="font: 10px sans-serif; fill: #000; opacity: 1;">1887</text><text text-anchor="end" transform="translate(576.5,7) rotate(270) translate(0,3)" style="font: 10px sans-serif; fill: #000; opacity: 1;">1891</text><text text-anchor="end" transform="translate(597.5,7) rotate(270) translate(0,3)" style="font: 10px sans-serif; fill: #000; opacity: 1;">1892</text><text text-anchor="end" transform="translate(618.5,7) rotate(270) translate(0,3)" style="font: 10px sans-serif; fill: #000; opacity: 1;">1894</text><text text-anchor="end" transform="translate(639.5,7) rotate(270) translate(0,3)" style="font: 10px sans-serif; fill: #000; opacity: 1;">1895</text><text text-anchor="end" transform="translate(660.5,7) rotate(270) translate(0,3)" style="font: 10px sans-serif; fill: #000; opacity: 1;">1901</text><text text-anchor="end" transform="translate(681.5,7) rotate(270) translate(0,3)" style="font: 10px sans-serif; fill: #000; opacity: 1;">1903</text><text text-anchor="end" transform="translate(702.5,7) rotate(270) translate(0,3)" style="font: 10px sans-serif; fill: #000; opacity: 1;">1904</text></g><g class="mark-rule role-axis-domain" style="pointer-events: none;"><line transform="translate(0,0)" x2="714" y2="0" style="fill: none; stroke: #888; stroke-width: 1; opacity: 1;"></line></g><g class="mark-text role-axis-title" style="pointer-events: none;"><text text-anchor="middle" transform="translate(357,43.24609375)" style="font: bold 11px sans-serif; fill: #000; opacity: 1;">Year of arrival</text></g></g></g></g><g class="mark-group role-axis"><g transform="translate(0.5,0.5)"><path class="background" d="M0,0h0v0h0Z" style="pointer-events: none; fill: none;"></path><g><g class="mark-rule role-axis-tick" style="pointer-events: none;"><line transform="translate(0,300)" x2="-5" y2="0" style="fill: none; stroke: #888; stroke-width: 1; opacity: 1;"></line><line transform="translate(0,254)" x2="-5" y2="0" style="fill: none; stroke: #888; stroke-width: 1; opacity: 1;"></line><line transform="translate(0,208)" x2="-5" y2="0" style="fill: none; stroke: #888; stroke-width: 1; opacity: 1;"></line><line transform="translate(0,162)" x2="-5" y2="0" style="fill: none; stroke: #888; stroke-width: 1; opacity: 1;"></line><line transform="translate(0,115)" x2="-5" y2="0" style="fill: none; stroke: #888; stroke-width: 1; opacity: 1;"></line><line transform="translate(0,69)" x2="-5" y2="0" style="fill: none; stroke: #888; stroke-width: 1; opacity: 1;"></line><line transform="translate(0,23)" x2="-5" y2="0" style="fill: none; stroke: #888; stroke-width: 1; opacity: 1;"></line></g><g class="mark-text role-axis-label" style="pointer-events: none;"><text text-anchor="end" transform="translate(-7,303)" style="font: 10px sans-serif; fill: #000; opacity: 1;">0</text><text text-anchor="end" transform="translate(-7,256.8461538461538)" style="font: 10px sans-serif; fill: #000; opacity: 1;">2</text><text text-anchor="end" transform="translate(-7,210.69230769230768)" style="font: 10px sans-serif; fill: #000; opacity: 1;">4</text><text text-anchor="end" transform="translate(-7,164.53846153846152)" style="font: 10px sans-serif; fill: #000; opacity: 1;">6</text><text text-anchor="end" transform="translate(-7,118.38461538461539)" style="font: 10px sans-serif; fill: #000; opacity: 1;">8</text><text text-anchor="end" transform="translate(-7,72.23076923076923)" style="font: 10px sans-serif; fill: #000; opacity: 1;">10</text><text text-anchor="end" transform="translate(-7,26.076923076923038)" style="font: 10px sans-serif; fill: #000; opacity: 1;">12</text></g><g class="mark-rule role-axis-domain" style="pointer-events: none;"><line transform="translate(0,300)" x2="0" y2="-300" style="fill: none; stroke: #888; stroke-width: 1; opacity: 1;"></line></g><g class="mark-text role-axis-title" style="pointer-events: none;"><text text-anchor="middle" transform="translate(-34,150) rotate(-90) translate(0,-2)" style="font: bold 11px sans-serif; fill: #000; opacity: 1;">Number of Records</text></g></g></g></g></g></g></g></g></svg>